<svg width="56" height="56" viewBox="0 0 56 56" fill="none" xmlns="http://www.w3.org/2000/svg">
<path d="M37.3275 54.4775C37.0125 54.4775 36.715 54.3025 36.5575 54.04C36.4 53.76 36.4 53.4275 36.5575 53.165L39.0075 49.0875C39.2525 48.6675 39.795 48.545 40.215 48.79C40.635 49.035 40.7575 49.5775 40.5125 49.9975L38.9025 52.675C46.6725 51.87 52.7625 45.29 52.7625 37.2925C52.7625 36.8025 53.1475 36.4175 53.6375 36.4175C54.1275 36.4175 54.5125 36.8025 54.5125 37.2925C54.5125 46.7775 46.795 54.495 37.31 54.495L37.3275 54.4775Z" fill="black"/>
<path d="M2.32748 19.4775C1.83748 19.4775 1.45248 19.0925 1.45248 18.6025C1.45248 9.11751 9.16998 1.38251 18.6725 1.38251C18.9875 1.38251 19.285 1.55751 19.4425 1.82001C19.6 2.10001 19.6 2.43251 19.4425 2.69501L16.9925 6.77251C16.7475 7.19251 16.205 7.31501 15.785 7.07001C15.365 6.82501 15.2425 6.28251 15.4875 5.86251L17.0975 3.18501C9.29248 4.02501 3.20248 10.6225 3.20248 18.6025C3.20248 19.0925 2.81748 19.4775 2.32748 19.4775Z" fill="black"/>
<path d="M33.5475 39.69C33.5475 44.9925 29.2425 49.2975 23.94 49.2975C18.6375 49.2975 14.3325 44.9925 14.3325 39.69C14.3325 34.3875 18.6375 30.0825 23.94 30.0825C24.185 30.0825 24.43 30.0825 24.675 30.1175C29.3825 30.4675 33.1625 34.2475 33.5125 38.955C33.5125 39.2 33.5475 39.445 33.5475 39.69Z" fill="#FFCB09"/>
<path d="M20.2475 51.0474C11.8125 51.0474 4.97 44.1874 4.97 35.7699C4.97 27.3524 11.83 20.4924 20.2475 20.4924C20.615 20.4924 20.9825 20.5099 21.35 20.5274C28.875 21.0874 34.93 27.1424 35.49 34.5974C35.5075 35.0349 35.5425 35.4024 35.5425 35.7699C35.5425 44.2049 28.6825 51.0474 20.265 51.0474H20.2475ZM20.2475 22.2249C12.7925 22.2249 6.72 28.2974 6.72 35.7524C6.72 43.2074 12.7925 49.2799 20.2475 49.2799C27.7025 49.2799 33.775 43.2074 33.775 35.7524C33.775 35.4199 33.7575 35.0874 33.74 34.7549C33.2325 28.1049 27.895 22.7674 21.2975 22.2599C20.9125 22.2424 20.5975 22.2249 20.2475 22.2249Z" fill="black"/>
<path d="M35.7525 35.525H34.5975C34.1425 35.525 33.7575 35.175 33.7225 34.72C33.2325 28.1225 27.8775 22.7675 21.28 22.2775C20.825 22.2425 20.475 21.8575 20.475 21.4025V20.2475C20.475 11.8125 27.335 4.96997 35.7525 4.96997C44.17 4.96997 51.03 11.83 51.03 20.2475C51.03 28.665 44.17 35.525 35.7525 35.525ZM35.385 33.775H35.7525C43.2075 33.775 49.28 27.7025 49.28 20.2475C49.28 12.7925 43.2075 6.71997 35.7525 6.71997C28.2975 6.71997 22.225 12.7925 22.225 20.2475V20.615C29.0325 21.5075 34.51 26.9675 35.4025 33.7925L35.385 33.775Z" fill="black"/>
<path d="M25.48 29.785H16.59C16.1 29.785 15.715 29.4 15.715 28.91C15.715 28.42 16.1 28.035 16.59 28.035H25.48C25.97 28.035 26.355 28.42 26.355 28.91C26.355 29.4 25.97 29.785 25.48 29.785Z" fill="black"/>
<path d="M25.48 34.6324H15.015C14.525 34.6324 14.14 34.2474 14.14 33.7574C14.14 33.2674 14.525 32.8824 15.015 32.8824H25.48C25.97 32.8824 26.355 33.2674 26.355 33.7574C26.355 34.2474 25.97 34.6324 25.48 34.6324Z" fill="black"/>
<path d="M22.0325 45.6575C21.8225 45.6575 21.6125 45.5875 21.455 45.4475L14.455 39.27C14.0875 38.955 14.0525 38.395 14.385 38.0275C14.7 37.66 15.26 37.625 15.6275 37.9575L22.6275 44.135C22.995 44.45 23.03 45.01 22.6975 45.3775C22.5225 45.57 22.2775 45.675 22.0325 45.675V45.6575Z" fill="black"/>
<path d="M16.59 39.48H15.015C14.525 39.48 14.14 39.095 14.14 38.605C14.14 38.115 14.525 37.73 15.015 37.73H16.59C18.41 37.73 19.8975 35.945 19.8975 33.7575C19.8975 31.57 18.41 29.785 16.59 29.785H15.015C14.525 29.785 14.14 29.4 14.14 28.91C14.14 28.42 14.525 28.035 15.015 28.035H16.59C19.3725 28.035 21.6475 30.6075 21.6475 33.7575C21.6475 36.9075 19.39 39.48 16.59 39.48Z" fill="black"/>
</svg>
