<svg width="56" height="56" viewBox="0 0 56 56" fill="none" xmlns="http://www.w3.org/2000/svg">
<path d="M37.1521 52.5003H29.9596C25.5146 52.5003 21.8921 48.3528 21.8921 43.2253V43.1553C21.8921 40.8278 22.6621 38.5703 24.0446 36.8553L28.4721 31.3778C31.0271 28.2103 35.8571 28.1753 38.4471 31.3253L43.0146 36.8553C44.4321 38.5703 45.2196 40.8628 45.2196 43.2253C45.2196 48.3354 41.6146 52.5003 37.1521 52.5003Z" fill="#FFCB09"/>
<path d="M33.7573 53.375H22.2423C14.6473 53.375 8.45227 47.25 8.45227 39.725C8.13727 36.2075 9.30977 32.6025 12.0573 28.7C16.1698 22.8375 26.8098 14.5775 27.2473 14.2275C27.5448 14 27.9648 13.9825 28.2798 14.21C28.7173 14.5075 38.8673 21.735 43.8373 28.6825C45.5348 31.045 47.5473 34.895 47.5473 39.7425C47.5473 47.2675 41.3698 53.3925 33.7573 53.3925V53.375ZM27.8073 16.0125C25.6023 17.7625 16.9573 24.7625 13.4923 29.715C11.0073 33.2675 9.92227 36.4875 10.2023 39.5675C10.2023 46.305 15.6098 51.6425 22.2423 51.6425H33.7573C40.3898 51.6425 45.7973 46.305 45.7973 39.7425C45.7973 35.3675 43.9598 31.8675 42.4198 29.6975C38.2548 23.87 29.9773 17.605 27.8073 16.0125Z" fill="black"/>
<path d="M28 15.575C27.755 15.575 27.5275 15.47 27.3525 15.295L17.15 4.095C16.9225 3.8325 16.8525 3.465 16.9925 3.15C17.1325 2.835 17.4475 2.625 17.7975 2.625H38.22C38.57 2.625 38.885 2.835 39.025 3.15C39.165 3.465 39.1125 3.8325 38.8675 4.095L28.665 15.295C28.5075 15.47 28.2625 15.575 28.0175 15.575H28ZM19.775 4.375L28 13.405L36.225 4.375H19.775Z" fill="black"/>
<path d="M38.2024 15.5752H22.1724C21.6824 15.5752 21.2974 15.1902 21.2974 14.7002C21.2974 14.2102 21.6824 13.8252 22.1724 13.8252H38.1849C38.6749 13.8252 39.0599 14.2102 39.0599 14.7002C39.0599 15.1902 38.6749 15.5752 38.1849 15.5752H38.2024Z" fill="black"/>
<path d="M35.8045 31.9375H25.4795C24.9895 31.9375 24.6045 31.5525 24.6045 31.0625C24.6045 30.5725 24.9895 30.1875 25.4795 30.1875H35.8045C36.2945 30.1875 36.6795 30.5725 36.6795 31.0625C36.6795 31.5525 36.2945 31.9375 35.8045 31.9375Z" fill="black"/>
<path d="M35.8047 37.1172H23.6597C23.1697 37.1172 22.7847 36.7322 22.7847 36.2422C22.7847 35.7522 23.1697 35.3672 23.6597 35.3672H35.8047C36.2947 35.3672 36.6797 35.7522 36.6797 36.2422C36.6797 36.7322 36.2947 37.1172 35.8047 37.1172Z" fill="black"/>
<path d="M31.7973 48.7898C31.5873 48.7898 31.3773 48.7198 31.2198 48.5798L23.0998 41.4223C22.7323 41.1073 22.6973 40.5473 23.0298 40.1798C23.3448 39.8123 23.9048 39.7773 24.2723 40.1098L32.3923 47.2673C32.7598 47.5823 32.7948 48.1423 32.4623 48.5098C32.2873 48.7023 32.0423 48.8073 31.7973 48.8073V48.7898Z" fill="black"/>
<path d="M25.4797 41.6325H23.6597C23.1697 41.6325 22.7847 41.2475 22.7847 40.7575C22.7847 40.2675 23.1697 39.8825 23.6597 39.8825H25.4797C27.6672 39.8825 29.4522 38.0975 29.4522 35.91C29.4522 33.7225 27.6672 31.9375 25.4797 31.9375H23.6597C23.1697 31.9375 22.7847 31.5525 22.7847 31.0625C22.7847 30.5725 23.1697 30.1875 23.6597 30.1875H25.4797C28.6297 30.1875 31.2022 32.76 31.2022 35.91C31.2022 39.06 28.6297 41.6325 25.4797 41.6325Z" fill="black"/>
</svg>
