<svg width="56" height="56" viewBox="0 0 56 56" fill="none" xmlns="http://www.w3.org/2000/svg">
<path d="M13.9475 53.3753C13.72 53.3753 13.4925 53.2878 13.335 53.1128L2.8875 42.6828C2.73 42.5253 2.625 42.2978 2.625 42.0703C2.625 41.8428 2.7125 41.6153 2.8875 41.4578L13.335 31.0278C13.335 31.0278 13.37 30.9928 13.3875 30.9753C14.91 29.6803 17.1325 28.9453 19.4775 28.9453C21.6475 28.9453 23.695 29.5753 25.235 30.7128C26.2675 31.4828 27.4225 31.8853 28.5425 31.8853H33.6175C35.49 31.8853 36.995 33.4078 36.995 35.2628V35.5078C36.995 37.3803 35.4725 38.8853 33.6175 38.8853H27.4575C26.81 38.8853 26.285 39.4103 26.285 40.0578C26.285 40.7053 26.81 41.2303 27.4575 41.2303H37.31L48.0375 33.1978C48.8425 32.5853 49.84 32.3578 50.8375 32.5153C51.835 32.6903 52.6925 33.2503 53.2525 34.0903C53.48 34.4403 53.4275 34.9128 53.13 35.2103L39.97 47.6353C38.64 48.8953 36.9075 49.5778 35.07 49.5778H19.7575C18.725 49.5778 17.71 49.9978 16.975 50.7328L14.5425 53.1478C14.3675 53.3228 14.14 53.4103 13.93 53.4103L13.9475 53.3753ZM4.7425 42.0528L13.9475 51.2578L15.75 49.4553C16.8175 48.3878 18.2525 47.7928 19.7575 47.7928H35.035C36.4175 47.7928 37.73 47.2678 38.7275 46.3228L51.2575 34.4928C51.03 34.3353 50.785 34.2478 50.505 34.1953C49.98 34.1078 49.4725 34.2303 49.0525 34.5453L38.0975 42.7528C37.94 42.8578 37.765 42.9278 37.5725 42.9278H27.44C25.83 42.9278 24.5175 41.6153 24.5175 40.0053C24.5175 38.3953 25.83 37.0828 27.44 37.0828H33.6C34.4925 37.0828 35.2275 36.3478 35.2275 35.4553V35.2103C35.2275 34.3178 34.4925 33.5828 33.6 33.5828H28.525C27.02 33.5828 25.515 33.0578 24.1675 32.0778C22.9425 31.1853 21.2275 30.6603 19.4425 30.6603C17.5175 30.6603 15.7325 31.2378 14.5075 32.2528L4.7075 42.0353L4.7425 42.0528Z" fill="black"/>
<path d="M28.0001 27.0725C21.2626 27.0725 15.7676 21.595 15.7676 14.84C15.7676 8.085 21.2626 2.625 28.0001 2.625C34.7376 2.625 40.2326 8.1025 40.2326 14.8575C40.2326 21.6125 34.7551 27.09 28.0001 27.09V27.0725ZM28.0001 4.375C22.2251 4.375 17.5176 9.065 17.5176 14.8575C17.5176 20.65 22.2251 25.34 28.0001 25.34C33.7751 25.34 38.4826 20.65 38.4826 14.8575C38.4826 9.065 33.7751 4.375 28.0001 4.375Z" fill="black"/>
<path d="M32.0075 10.6719H25.2175C24.7275 10.6719 24.3425 10.2869 24.3425 9.79688C24.3425 9.30687 24.7275 8.92188 25.2175 8.92188H32.0075C32.4975 8.92188 32.8825 9.30687 32.8825 9.79688C32.8825 10.2869 32.4975 10.6719 32.0075 10.6719Z" fill="black"/>
<path d="M32.0075 14.3828H24.01C23.52 14.3828 23.135 13.9978 23.135 13.5078C23.135 13.0178 23.52 12.6328 24.01 12.6328H32.0075C32.4975 12.6328 32.8825 13.0178 32.8825 13.5078C32.8825 13.9978 32.4975 14.3828 32.0075 14.3828Z" fill="black"/>
<path d="M29.365 22.8027C29.155 22.8027 28.945 22.7327 28.7875 22.5927L23.4325 17.8852C23.065 17.5702 23.03 17.0102 23.3625 16.6427C23.6775 16.2752 24.2375 16.2402 24.605 16.5727L29.96 21.2802C30.3275 21.5952 30.3625 22.1552 30.03 22.5227C29.855 22.7152 29.61 22.8202 29.365 22.8202V22.8027Z" fill="black"/>
<path d="M25.1998 18.0763H24.0098C23.5198 18.0763 23.1348 17.6913 23.1348 17.2013C23.1348 16.7113 23.5198 16.3263 24.0098 16.3263H25.1998C26.4773 16.3263 27.5098 15.0663 27.5098 13.4913C27.5098 11.9163 26.4773 10.6563 25.1998 10.6563H24.0098C23.5198 10.6563 23.1348 10.2713 23.1348 9.78125C23.1348 9.29125 23.5198 8.90625 24.0098 8.90625H25.1998C27.4398 8.90625 29.2598 10.9537 29.2598 13.4913C29.2598 16.0288 27.4398 18.0763 25.1998 18.0763V18.0763Z" fill="black"/>
<path d="M39.3575 18.6381C39.3575 22.8206 35.9625 26.1981 31.7975 26.1981C27.6325 26.1981 24.2375 22.8031 24.2375 18.6381C24.2375 14.4731 27.6325 11.0781 31.7975 11.0781C35.9625 11.0781 39.3575 14.4731 39.3575 18.6381Z" fill="#FFCB09"/>
<path d="M13.9475 53.3753C13.72 53.3753 13.4925 53.2878 13.335 53.1128L2.8875 42.6828C2.73 42.5253 2.625 42.2978 2.625 42.0703C2.625 41.8428 2.7125 41.6153 2.8875 41.4578L13.335 31.0278C13.335 31.0278 13.37 30.9928 13.3875 30.9753C14.91 29.6803 17.1325 28.9453 19.4775 28.9453C21.6475 28.9453 23.695 29.5753 25.235 30.7128C26.2675 31.4828 27.4225 31.8853 28.5425 31.8853H33.6175C35.49 31.8853 36.995 33.4078 36.995 35.2628V35.5078C36.995 37.3803 35.4725 38.8853 33.6175 38.8853H27.4575C26.81 38.8853 26.285 39.4103 26.285 40.0578C26.285 40.7053 26.81 41.2303 27.4575 41.2303H37.31L48.0375 33.1978C48.8425 32.5853 49.84 32.3578 50.8375 32.5153C51.835 32.6903 52.6925 33.2503 53.2525 34.0903C53.48 34.4403 53.4275 34.9128 53.13 35.2103L39.97 47.6353C38.64 48.8953 36.9075 49.5778 35.07 49.5778H19.7575C18.725 49.5778 17.71 49.9978 16.975 50.7328L14.5425 53.1478C14.3675 53.3228 14.14 53.4103 13.93 53.4103L13.9475 53.3753ZM4.7425 42.0528L13.9475 51.2578L15.75 49.4553C16.8175 48.3878 18.2525 47.7928 19.7575 47.7928H35.035C36.4175 47.7928 37.73 47.2678 38.7275 46.3228L51.2575 34.4928C51.03 34.3353 50.785 34.2478 50.505 34.1953C49.98 34.1078 49.4725 34.2303 49.0525 34.5453L38.0975 42.7528C37.94 42.8578 37.765 42.9278 37.5725 42.9278H27.44C25.83 42.9278 24.5175 41.6153 24.5175 40.0053C24.5175 38.3953 25.83 37.0828 27.44 37.0828H33.6C34.4925 37.0828 35.2275 36.3478 35.2275 35.4553V35.2103C35.2275 34.3178 34.4925 33.5828 33.6 33.5828H28.525C27.02 33.5828 25.515 33.0578 24.1675 32.0778C22.9425 31.1853 21.2275 30.6603 19.4425 30.6603C17.5175 30.6603 15.7325 31.2378 14.5075 32.2528L4.7075 42.0353L4.7425 42.0528Z" fill="black"/>
<path d="M28.0001 27.0725C21.2626 27.0725 15.7676 21.595 15.7676 14.84C15.7676 8.085 21.2626 2.625 28.0001 2.625C34.7376 2.625 40.2326 8.1025 40.2326 14.8575C40.2326 21.6125 34.7551 27.09 28.0001 27.09V27.0725ZM28.0001 4.375C22.2251 4.375 17.5176 9.065 17.5176 14.8575C17.5176 20.65 22.2251 25.34 28.0001 25.34C33.7751 25.34 38.4826 20.65 38.4826 14.8575C38.4826 9.065 33.7751 4.375 28.0001 4.375Z" fill="black"/>
<path d="M32.0075 10.6719H25.2175C24.7275 10.6719 24.3425 10.2869 24.3425 9.79688C24.3425 9.30687 24.7275 8.92188 25.2175 8.92188H32.0075C32.4975 8.92188 32.8825 9.30687 32.8825 9.79688C32.8825 10.2869 32.4975 10.6719 32.0075 10.6719Z" fill="black"/>
<path d="M32.0075 14.3828H24.01C23.52 14.3828 23.135 13.9978 23.135 13.5078C23.135 13.0178 23.52 12.6328 24.01 12.6328H32.0075C32.4975 12.6328 32.8825 13.0178 32.8825 13.5078C32.8825 13.9978 32.4975 14.3828 32.0075 14.3828Z" fill="black"/>
<path d="M29.365 22.8027C29.155 22.8027 28.945 22.7327 28.7875 22.5927L23.4325 17.8852C23.065 17.5702 23.03 17.0102 23.3625 16.6427C23.6775 16.2752 24.2375 16.2402 24.605 16.5727L29.96 21.2802C30.3275 21.5952 30.3625 22.1552 30.03 22.5227C29.855 22.7152 29.61 22.8202 29.365 22.8202V22.8027Z" fill="black"/>
<path d="M25.1998 18.0763H24.0098C23.5198 18.0763 23.1348 17.6913 23.1348 17.2013C23.1348 16.7113 23.5198 16.3263 24.0098 16.3263H25.1998C26.4773 16.3263 27.5098 15.0663 27.5098 13.4913C27.5098 11.9163 26.4773 10.6563 25.1998 10.6563H24.0098C23.5198 10.6563 23.1348 10.2713 23.1348 9.78125C23.1348 9.29125 23.5198 8.90625 24.0098 8.90625H25.1998C27.4398 8.90625 29.2598 10.9537 29.2598 13.4913C29.2598 16.0288 27.4398 18.0763 25.1998 18.0763V18.0763Z" fill="black"/>
</svg>
