<?xml version="1.0" encoding="UTF-8"?><svg id="Layer_1" xmlns="http://www.w3.org/2000/svg" viewBox="0 0 56 56"><g opacity="0"><rect width="56" height="56" fill="none"/></g><g><circle cx="44.47" cy="30.9" r="6.96" fill="#ffcc0b"/><path d="M14.07,39.25c-6.2,0-11.25-5.05-11.25-11.25s5.05-11.25,11.25-11.25,11.25,5.05,11.25,11.25-5.05,11.25-11.25,11.25Zm0-20.75c-5.24,0-9.5,4.26-9.5,9.5s4.26,9.5,9.5,9.5,9.5-4.26,9.5-9.5-4.26-9.5-9.5-9.5Z" fill="#010101"/><path d="M41.93,39.25c-6.2,0-11.25-5.05-11.25-11.25s5.05-11.25,11.25-11.25,11.25,5.05,11.25,11.25-5.05,11.25-11.25,11.25Zm0-20.75c-5.24,0-9.5,4.26-9.5,9.5s4.26,9.5,9.5,9.5,9.5-4.26,9.5-9.5-4.26-9.5-9.5-9.5Z" fill="#010101"/><path d="M32.63,24.28c-.37,0-.71-.23-.83-.6-.03-.1-.93-2.6-3.78-2.6s-3.79,2.51-3.82,2.61c-.16,.46-.67,.69-1.12,.53-.45-.16-.69-.65-.54-1.11,.45-1.31,2.18-3.79,5.48-3.79s5,2.48,5.44,3.8c.15,.46-.1,.95-.55,1.11-.09,.03-.18,.05-.28,.05Z" fill="#010101"/></g></svg>